<svg xmlns="http://www.w3.org/2000/svg" viewBox="0 0 512 512"><title>SALAH — арка и полумесяц</title><defs><linearGradient id="night" x1="0" y1="0" x2="1" y2="1"><stop stop-color="#040913"/><stop offset="1" stop-color="#112b46"/></linearGradient><radialGradient id="halo"><stop stop-color="#314563" stop-opacity=".38"/><stop offset="1" stop-color="#07101d" stop-opacity="0"/></radialGradient><linearGradient id="gold" gradientUnits="userSpaceOnUse" x1="142" y1="119" x2="370" y2="404"><stop stop-color="#fae7be"/><stop offset=".5" stop-color="#dbc08e"/><stop offset="1" stop-color="#bd9861"/></linearGradient><mask id="crescent"><rect width="512" height="512" fill="#000"/><circle cx="251" cy="267" r="57" fill="#fff"/><circle cx="275" cy="248" r="54" fill="#000"/></mask></defs><rect width="512" height="512" fill="url(#night)"/><circle cx="256" cy="255" r="225" fill="url(#halo)"/><g fill="none" stroke="url(#gold)" stroke-width="13" stroke-linecap="round" stroke-linejoin="round"><path d="M142 380V270C142 206 183 176 226 143L256 119L286 143C329 176 370 206 370 270V380"/><path d="M176 404H336" stroke-width="9"/></g><circle cx="251" cy="267" r="57" fill="url(#gold)" mask="url(#crescent)"/><path d="M309 227L312 236L321 239L312 242L309 251L306 242L297 239L306 236Z" fill="#f8e5bb"/></svg>
